# xmcd
#
# Track frame offsets:
#	150
#	10048
#	19607
#	30226
#	40041
#	50072
#	61174
#	75015
#	90749
#	106638
#	120318
#	127377
#	145878
#	162722
#	178717
#	194420
#	210190
#	222038
#	237422
#	249687
#	262661
#	276516
#
# Disc length: 3880 seconds
#
# Revision: 0
# Processed by: cddbd v1.5.2PL0 Copyright (c) Steve Scherf et al.
# Submitted via: EZCDAudioConverter 1.0.6.1
#
DISCID=220f2616
DTITLE=Lee Dorsey - Night People the Best of Lee Dorsey
DYEAR=1900
DGENRE=blues
TTITLE0=Organ grinder swing
TTITLE1=I gotta find a new love
TTITLE2=Oo-na-nay
TTITLE3=You better tell her
TTITLE4=Lonelyology (For your love)
TTITLE5=Ay-la-ay
TTITLE6=My babe
TTITLE7=What am I living for
TTITLE8=When can I come home?
TTITLE9=Lonely avenue
TTITLE10=My old car commercial
TTITLE11=Lottie-mo (live)
TTITLE12=Ride your pony (live)
TTITLE13=Working in the coal mine (live)
TTITLE14=Yes we can part 1
TTITLE15=Yes we can part 2
TTITLE16=Riverboat
TTITLE17=Tears, tears and more tears
TTITLE18=O me-o, my-o
TTITLE19=Sneakin' Sally through the alley
TTITLE20=Who's gonna help brother get further
TTITLE21=Games people play 
EXTD=
EXTT0=
EXTT1=
EXTT2=
EXTT3=
EXTT4=
EXTT5=
EXTT6=
EXTT7=
EXTT8=
EXTT9=
EXTT10=
EXTT11=
EXTT12=
EXTT13=
EXTT14=
EXTT15=
EXTT16=
EXTT17=
EXTT18=
EXTT19=
EXTT20=
EXTT21=
PLAYORDER=
